<svg width="590" height="471" viewBox="0 0 590 471" fill="none" xmlns="http://www.w3.org/2000/svg">
<ellipse cx="295" cy="269" rx="295" ry="202" fill="url(#paint0_radial_24_10)"/>
<path d="M259.34 181.792V86.2853L293.588 105.881V201.564L259.34 181.792Z" fill="url(#paint1_linear_24_10)"/>
<path d="M330.661 176.988L293.411 201.741V105.911L330.661 85.7548V176.988Z" fill="url(#paint2_linear_24_10)"/>
<path d="M294.117 66.8364L330.661 85.9317L293.411 106.088L259.34 86.4621L294.117 66.8364Z" fill="url(#paint3_linear_24_10)"/>
<path d="M221.775 94.244L186 72.9679V33.6338L221.775 54.5524V94.244Z" fill="url(#paint4_linear_24_10)"/>
<path d="M259.34 33.2762L221.775 54.3736V94.4228L259.34 73.3255V33.2762Z" fill="url(#paint5_linear_24_10)"/>
<path d="M223.922 12L186 33.725L221.775 54.5524L259.34 33.3659L223.922 12Z" fill="url(#paint6_linear_24_10)"/>
<path d="M366.436 269.144L330.661 243.352V195.67L366.436 221.028V269.144Z" fill="url(#paint7_linear_24_10)"/>
<path d="M404 195.453L366.436 221.028V269.578L404 244.003V195.453Z" fill="url(#paint8_linear_24_10)"/>
<path d="M368.582 169.444L330.661 195.781L366.436 221.028L404 195.345L368.582 169.444Z" fill="url(#paint9_linear_24_10)"/>
<defs>
<radialGradient id="paint0_radial_24_10" cx="0" cy="0" r="1" gradientUnits="userSpaceOnUse" gradientTransform="translate(295 260) rotate(90) scale(177 258.49)">
<stop stop-color="#FD6721" stop-opacity="0.87"/>
<stop offset="1" stop-color="#FD6721" stop-opacity="0"/>
</radialGradient>
<linearGradient id="paint1_linear_24_10" x1="295.183" y1="273.221" x2="295.183" y2="134.185" gradientUnits="userSpaceOnUse">
<stop offset="0.0496743" stop-color="#FF7636" stop-opacity="0.85034"/>
<stop offset="1" stop-color="#FF3D21"/>
</linearGradient>
<linearGradient id="paint2_linear_24_10" x1="295" y1="66.8364" x2="295" y2="201.741" gradientUnits="userSpaceOnUse">
<stop offset="0.220959" stop-color="#FF7636"/>
<stop offset="1" stop-color="#FF361F"/>
</linearGradient>
<linearGradient id="paint3_linear_24_10" x1="295" y1="66.8364" x2="307.748" y2="120.577" gradientUnits="userSpaceOnUse">
<stop stop-color="#FF7636"/>
<stop offset="0.8219" stop-color="#FF3D21"/>
</linearGradient>
<linearGradient id="paint4_linear_24_10" x1="133.562" y1="166.148" x2="178.088" y2="37.6427" gradientUnits="userSpaceOnUse">
<stop stop-color="#FF7636"/>
<stop offset="1" stop-color="#FF3D21"/>
</linearGradient>
<linearGradient id="paint5_linear_24_10" x1="222.67" y1="12" x2="204.386" y2="98.548" gradientUnits="userSpaceOnUse">
<stop offset="0.457884" stop-color="#FF7636"/>
<stop offset="1" stop-color="#FF3D21"/>
</linearGradient>
<linearGradient id="paint6_linear_24_10" x1="186" y1="12" x2="229.225" y2="85.7772" gradientUnits="userSpaceOnUse">
<stop offset="0.12187" stop-color="#FF7636"/>
<stop offset="0.58465" stop-color="#FF4624"/>
</linearGradient>
<linearGradient id="paint7_linear_24_10" x1="278.223" y1="356.715" x2="340.75" y2="208.175" gradientUnits="userSpaceOnUse">
<stop stop-color="#FF7636"/>
<stop offset="1" stop-color="#FF3D21"/>
</linearGradient>
<linearGradient id="paint8_linear_24_10" x1="393.183" y1="175.313" x2="357.685" y2="249.498" gradientUnits="userSpaceOnUse">
<stop offset="0.571334" stop-color="#FF7636"/>
<stop offset="1" stop-color="#FF4C26"/>
</linearGradient>
<linearGradient id="paint9_linear_24_10" x1="343.949" y1="169.444" x2="342.649" y2="269.536" gradientUnits="userSpaceOnUse">
<stop offset="0.130119" stop-color="#FF7636"/>
<stop offset="0.322551" stop-color="#FF4624"/>
</linearGradient>
</defs>
</svg>

